<?xml version="1.0" encoding="UTF-8"?>
<svg width="1200" height="800" viewBox="0 0 1200 800" xmlns="http://www.w3.org/2000/svg">
    <!-- 背景 -->
    <rect width="1200" height="800" fill="#f8f9fa"/>
    
    <!-- ヘッダーセクション -->
    <rect x="20" y="20" width="1160" height="80" rx="10" fill="#ffffff" stroke="#dee2e6"/>
    
    <!-- 表示切替 -->
    <g transform="translate(40, 40)">
        <rect width="100" height="40" rx="20" fill="#007bff"/>
        <rect x="100" width="100" height="40" rx="20" fill="#ffffff" stroke="#dee2e6"/>
        <text x="30" y="25" font-family="Arial" font-size="14" fill="#ffffff">口座</text>
        <text x="130" y="25" font-family="Arial" font-size="14" fill="#495057">資産</text>
    </g>
    
    <!-- 支出カテゴリ円グラフ（左上） -->
    <g transform="translate(20, 120)">
        <rect width="570" height="320" rx="10" fill="#ffffff" stroke="#dee2e6"/>
        <text x="40" y="40" font-family="Arial" font-size="16" font-weight="bold" fill="#212529">支出カテゴリ割合</text>
        
        <!-- 円グラフ -->
        <g transform="translate(285, 180)">
            <!-- 食費 30% -->
            <path d="M0,0 L86.6,-50 A100,100 0 0,1 86.6,50 Z" fill="#28a745"/>
            <!-- 住居費 25% -->
            <path d="M0,0 L86.6,50 A100,100 0 0,1 0,100 Z" fill="#007bff"/>
            <!-- 交通費 20% -->
            <path d="M0,0 L0,100 A100,100 0 0,1 -86.6,50 Z" fill="#ffc107"/>
            <!-- その他 25% -->
            <path d="M0,0 L-86.6,50 A100,100 0 0,1 -86.6,-50 Z" fill="#dc3545"/>
        </g>
        
        <!-- 凡例 -->
        <g transform="translate(40, 280)">
            <rect width="10" height="10" fill="#28a745"/>
            <text x="20" y="10" font-family="Arial" font-size="12" fill="#495057">食費 (30%)</text>
            
            <rect x="120" width="10" height="10" fill="#007bff"/>
            <text x="140" y="10" font-family="Arial" font-size="12" fill="#495057">住居費 (25%)</text>
            
            <rect x="240" width="10" height="10" fill="#ffc107"/>
            <text x="260" y="10" font-family="Arial" font-size="12" fill="#495057">交通費 (20%)</text>
            
            <rect x="360" width="10" height="10" fill="#dc3545"/>
            <text x="380" y="10" font-family="Arial" font-size="12" fill="#495057">その他 (25%)</text>
        </g>
    </g>
    
    <!-- 収入カテゴリ円グラフ（右上） -->
    <g transform="translate(610, 120)">
        <rect width="570" height="320" rx="10" fill="#ffffff" stroke="#dee2e6"/>
        <text x="40" y="40" font-family="Arial" font-size="16" font-weight="bold" fill="#212529">収入カテゴリ割合</text>
        
        <!-- 円グラフ -->
        <g transform="translate(285, 180)">
            <!-- 給与 70% -->
            <path d="M0,0 L100,0 A100,100 0 0,1 -34.2,93.97 Z" fill="#28a745"/>
            <!-- 投資 20% -->
            <path d="M0,0 L-34.2,93.97 A100,100 0 0,1 -93.97,-34.2 Z" fill="#007bff"/>
            <!-- その他 10% -->
            <path d="M0,0 L-93.97,-34.2 A100,100 0 0,1 100,0 Z" fill="#ffc107"/>
        </g>
        
        <!-- 凡例 -->
        <g transform="translate(40, 280)">
            <rect width="10" height="10" fill="#28a745"/>
            <text x="20" y="10" font-family="Arial" font-size="12" fill="#495057">給与 (70%)</text>
            
            <rect x="120" width="10" height="10" fill="#007bff"/>
            <text x="140" y="10" font-family="Arial" font-size="12" fill="#495057">投資 (20%)</text>
            
            <rect x="240" width="10" height="10" fill="#ffc107"/>
            <text x="260" y="10" font-family="Arial" font-size="12" fill="#495057">その他 (10%)</text>
        </g>
    </g>
    
    <!-- 収支推移グラフ（下部） -->
    <g transform="translate(20, 460)">
        <rect width="1160" height="320" rx="10" fill="#ffffff" stroke="#dee2e6"/>
        <text x="40" y="40" font-family="Arial" font-size="16" font-weight="bold" fill="#212529">年間収支推移</text>
        
        <!-- 折れ線グラフ -->
        <g transform="translate(40, 80)">
            <!-- Y軸 -->
            <line x1="40" y1="0" x2="40" y2="200" stroke="#dee2e6"/>
            <text x="0" y="20" font-family="Arial" font-size="12" fill="#6c757d">500万円</text>
            <text x="0" y="110" font-family="Arial" font-size="12" fill="#6c757d">250万円</text>
            <text x="0" y="200" font-family="Arial" font-size="12" fill="#6c757d">0円</text>
            
            <!-- X軸 -->
            <line x1="40" y1="200" x2="1080" y2="200" stroke="#dee2e6"/>
            
            <!-- データライン（収入） -->
            <path d="M40,80 L240,70 L440,60 L640,50 L840,40 L1040,30" 
                  fill="none" stroke="#28a745" stroke-width="2"/>
            
            <!-- データライン（支出） -->
            <path d="M40,120 L240,130 L440,140 L640,150 L840,160 L1040,170" 
                  fill="none" stroke="#dc3545" stroke-width="2"/>
            
            <!-- 年ラベル -->
            <text x="40" y="220" font-family="Arial" font-size="12" fill="#6c757d">2020</text>
            <text x="240" y="220" font-family="Arial" font-size="12" fill="#6c757d">2021</text>
            <text x="440" y="220" font-family="Arial" font-size="12" fill="#6c757d">2022</text>
            <text x="640" y="220" font-family="Arial" font-size="12" fill="#6c757d">2023</text>
            <text x="840" y="220" font-family="Arial" font-size="12" fill="#6c757d">2024</text>
            <text x="1040" y="220" font-family="Arial" font-size="12" fill="#6c757d">2025</text>
        </g>
        
        <!-- 凡例 -->
        <g transform="translate(900, 40)">
            <rect width="10" height="10" fill="#28a745"/>
            <text x="20" y="10" font-family="Arial" font-size="12" fill="#495057">収入</text>
            
            <rect x="100" width="10" height="10" fill="#dc3545"/>
            <text x="120" y="10" font-family="Arial" font-size="12" fill="#495057">支出</text>
        </g>
    </g>
</svg>