<?xml version="1.0" encoding="UTF-8"?>
<svg width="1200" height="800" viewBox="0 0 1200 800" xmlns="http://www.w3.org/2000/svg">
    <!-- 背景 -->
    <rect width="1200" height="800" fill="#f8f9fa"/>
    
    <!-- サイドバー -->
    <g transform="translate(20, 20)">
        <rect width="280" height="760" rx="10" fill="#ffffff" stroke="#dee2e6"/>
        
        <!-- メニュー項目 -->
        <g transform="translate(20, 20)">
            <!-- 基本設定 -->
            <rect width="240" height="50" rx="5" fill="#007bff"/>
            <text x="20" y="30" font-family="Arial" font-size="14" fill="#ffffff">基本設定</text>
            
            <!-- 詳細設定 -->
            <g transform="translate(0, 60)">
                <rect width="240" height="50" rx="5" fill="#ffffff"/>
                <text x="20" y="30" font-family="Arial" font-size="14" fill="#495057">詳細設定</text>
            </g>
            
            <!-- FIRE計画 -->
            <g transform="translate(0, 120)">
                <rect width="240" height="50" rx="5" fill="#ffffff"/>
                <text x="20" y="30" font-family="Arial" font-size="14" fill="#495057">FIRE計画</text>
            </g>
        </g>
    </g>
    
    <!-- メインコンテンツ -->
    <g transform="translate(320, 20)">
        <rect width="860" height="760" rx="10" fill="#ffffff" stroke="#dee2e6"/>
        
        <!-- プロファイル設定 -->
        <text x="40" y="50" font-family="Arial" font-size="24" font-weight="bold" fill="#212529">プロファイル設定</text>
        
        <!-- フォーム -->
        <g transform="translate(40, 80)">
            <!-- ユーザー名 -->
            <text x="0" y="20" font-family="Arial" font-size="14" fill="#495057">ユーザー名</text>
            <rect x="0" y="30" width="400" height="40" rx="5" fill="#ffffff" stroke="#dee2e6"/>
            <text x="20" y="55" font-family="Arial" font-size="14" fill="#495057">@yamada</text>
            
            <!-- 通貨（表示のみ） -->
            <g transform="translate(0, 100)">
                <text x="0" y="20" font-family="Arial" font-size="14" fill="#495057">通貨</text>
                <rect x="0" y="30" width="400" height="40" rx="5" fill="#f8f9fa"/>
                <text x="20" y="55" font-family="Arial" font-size="14" fill="#6c757d">日本円（JPY）</text>
            </g>

            <!-- ライフプラン範囲 -->
            <g transform="translate(0, 200)">
                <text x="0" y="20" font-family="Arial" font-size="14" fill="#495057">ライフプラン範囲</text>
                
                <!-- 開始年 -->
                <text x="0" y="50" font-family="Arial" font-size="14" fill="#495057">開始年</text>
                <rect x="0" y="60" width="180" height="40" rx="5" fill="#ffffff" stroke="#dee2e6"/>
                <text x="20" y="85" font-family="Arial" font-size="14" fill="#495057">2025年▼</text>
                
                <!-- 終了年 -->
                <text x="220" y="50" font-family="Arial" font-size="14" fill="#495057">終了年</text>
                <rect x="220" y="60" width="180" height="40" rx="5" fill="#ffffff" stroke="#dee2e6"/>
                <text x="240" y="85" font-family="Arial" font-size="14" fill="#495057">2065年▼</text>
            </g>
        </g>
        
        <!-- 保存ボタン -->
        <g transform="translate(40, 680)">
            <rect width="200" height="40" rx="5" fill="#007bff"/>
            <text x="70" y="25" font-family="Arial" font-size="14" fill="#ffffff">変更を保存</text>
        </g>
    </g>
</svg>