<?xml version="1.0" encoding="UTF-8"?>
<svg width="1200" height="800" viewBox="0 0 1200 800" xmlns="http://www.w3.org/2000/svg">
    <!-- 背景 -->
    <rect width="1200" height="800" fill="#f8f9fa"/>
    
    <!-- ヘッダーセクション -->
    <rect x="20" y="20" width="1160" height="80" rx="10" fill="#ffffff" stroke="#dee2e6"/>
    
    <!-- タブとフィルター -->
    <g transform="translate(40, 40)">
        <!-- 年別選択 -->
        <rect width="120" height="40" rx="5" fill="#ffffff" stroke="#dee2e6"/>
        <text x="20" y="25" font-family="Arial" font-size="14" fill="#495057">2025年▼</text>
        
        <!-- タブ切り替え -->
        <g transform="translate(140, 0)">
            <rect width="200" height="40" rx="20" fill="#007bff"/>
            <rect x="200" width="200" height="40" rx="0" fill="#f8f9fa"/>
            <rect x="400" width="200" height="40" rx="0" fill="#f8f9fa"/>
            <rect x="600" width="200" height="40" rx="20" fill="#f8f9fa"/>
            <text x="90" y="25" font-family="Arial" font-size="14" fill="#ffffff">支出</text>
            <text x="290" y="25" font-family="Arial" font-size="14" fill="#495057">収入</text>
            <text x="490" y="25" font-family="Arial" font-size="14" fill="#495057">振替</text>
            <text x="690" y="25" font-family="Arial" font-size="14" fill="#495057">投資</text>
        </g>
    </g>
    
    <!-- 年間サマリー -->
    <g transform="translate(20, 120)">
        <rect width="1160" height="200" rx="10" fill="#ffffff" stroke="#dee2e6"/>
        
        <!-- 総額表示 -->
        <text x="40" y="40" font-family="Arial" font-size="18" font-weight="bold" fill="#212529">2025年の支出</text>
        <text x="40" y="80" font-family="Arial" font-size="24" fill="#dc3545">-¥2,400,000</text>
        <text x="40" y="110" font-family="Arial" font-size="18" fill="#6c757d">月平均: -¥200,000</text>
        
        <!-- カテゴリ別円グラフ -->
        <circle cx="900" cy="100" r="80" fill="none" stroke="#dee2e6"/>
        <path d="M900,100 L900,20 A80,80 0 0,1 969,100 Z" fill="#007bff"/>
        <path d="M900,100 L969,100 A80,80 0 0,1 900,180 Z" fill="#28a745"/>
        <path d="M900,100 L900,180 A80,80 0 0,1 831,100 Z" fill="#ffc107"/>
        <path d="M900,100 L831,100 A80,80 0 0,1 900,20 Z" fill="#dc3545"/>
        
        <!-- グラフ凡例 -->
        <g transform="translate(720, 40)">
            <rect width="15" height="15" fill="#007bff"/>
            <text x="25" y="12" font-family="Arial" font-size="12" fill="#495057">住居費 35%</text>
            <rect y="25" width="15" height="15" fill="#28a745"/>
            <text x="25" y="37" font-family="Arial" font-size="12" fill="#495057">食費 25%</text>
            <rect y="50" width="15" height="15" fill="#ffc107"/>
            <text x="25" y="62" font-family="Arial" font-size="12" fill="#495057">交通費 20%</text>
            <rect y="75" width="15" height="15" fill="#dc3545"/>
            <text x="25" y="87" font-family="Arial" font-size="12" fill="#495057">その他 20%</text>
        </g>
    </g>
    
    <!-- カテゴリアコーディオンリスト - 支出 -->
    <g transform="translate(20, 340)" id="expense-view">
        <!-- 住居費カテゴリ -->
        <rect width="1160" height="60" rx="5" fill="#ffffff" stroke="#dee2e6"/>
        <circle cx="50" cy="30" r="15" fill="#007bff"/>
        <text x="80" y="35" font-family="Arial" font-size="14" font-weight="bold" fill="#495057">住居費</text>
        <text x="850" y="35" font-family="Arial" font-size="14" fill="#6c757d">月平均: -¥70,000</text>
        <text x="1000" y="35" font-family="Arial" font-size="14" fill="#dc3545">-¥840,000</text>
        <text x="1120" y="35" font-family="Arial" font-size="14" fill="#495057">▼</text>
        
        <!-- 住居費の取引リスト -->
        <g transform="translate(0, 60)">
            <rect width="1160" height="120" fill="#f8f9fa"/>
            <!-- 取引1 -->
            <rect x="20" y="10" width="1120" height="40" rx="5" fill="#ffffff" stroke="#dee2e6"/>
            <text x="40" y="35" font-family="Arial" font-size="14" fill="#495057">家賃</text>
            <text x="200" y="35" font-family="Arial" font-size="14" fill="#495057">年12回 (月額: -¥70,000)</text>
            <text x="1000" y="35" font-family="Arial" font-size="14" fill="#dc3545">-¥840,000</text>
            
            <!-- 取引2 -->
            <rect x="20" y="60" width="1120" height="40" rx="5" fill="#ffffff" stroke="#dee2e6"/>
            <text x="40" y="85" font-family="Arial" font-size="14" fill="#495057">光熱費</text>
            <text x="200" y="85" font-family="Arial" font-size="14" fill="#495057">年12回 (月額: -¥15,000)</text>
            <text x="1000" y="85" font-family="Arial" font-size="14" fill="#dc3545">-¥180,000</text>
        </g>
    </g>

    <!-- カテゴリアコーディオンリスト - 収入 -->
    <g transform="translate(20, 340)" id="income-view" display="none">
        <!-- 給与カテゴリ -->
        <rect width="1160" height="60" rx="5" fill="#ffffff" stroke="#dee2e6"/>
        <circle cx="50" cy="30" r="15" fill="#28a745"/>
        <text x="80" y="35" font-family="Arial" font-size="14" font-weight="bold" fill="#495057">給与収入</text>
        <text x="850" y="35" font-family="Arial" font-size="14" fill="#6c757d">月平均: +¥300,000</text>
        <text x="1000" y="35" font-family="Arial" font-size="14" fill="#28a745">+¥3,600,000</text>
        <text x="1120" y="35" font-family="Arial" font-size="14" fill="#495057">▼</text>

        <!-- 給与の取引リスト -->
        <g transform="translate(0, 60)">
            <rect width="1160" height="120" fill="#f8f9fa"/>
            <!-- 取引1 -->
            <rect x="20" y="10" width="1120" height="40" rx="5" fill="#ffffff" stroke="#dee2e6"/>
            <text x="40" y="35" font-family="Arial" font-size="14" fill="#495057">基本給</text>
            <text x="200" y="35" font-family="Arial" font-size="14" fill="#495057">年12回 (月額: +¥250,000)</text>
            <text x="1000" y="35" font-family="Arial" font-size="14" fill="#28a745">+¥3,000,000</text>
        </g>
    </g>

    <!-- 振替取引リスト -->
    <g transform="translate(20, 340)" id="transfer-view" display="none">
        <!-- 振替1 -->
        <rect width="1160" height="60" rx="5" fill="#ffffff" stroke="#dee2e6"/>
        <circle cx="50" cy="30" r="15" fill="#6c757d"/>
        <text x="80" y="35" font-family="Arial" font-size="14" fill="#495057">普通預金</text>
        <text x="300" y="35" font-family="Arial" font-size="14" fill="#495057">→</text>
        <text x="350" y="35" font-family="Arial" font-size="14" fill="#495057">貯蓄預金</text>
        <text x="1000" y="35" font-family="Arial" font-size="14" fill="#6c757d">¥100,000</text>

        <!-- 振替2 -->
        <g transform="translate(0, 70)">
            <rect width="1160" height="60" rx="5" fill="#ffffff" stroke="#dee2e6"/>
            <circle cx="50" cy="30" r="15" fill="#6c757d"/>
            <text x="80" y="35" font-family="Arial" font-size="14" fill="#495057">貯蓄預金</text>
            <text x="300" y="35" font-family="Arial" font-size="14" fill="#495057">→</text>
            <text x="350" y="35" font-family="Arial" font-size="14" fill="#495057">投資用口座</text>
            <text x="1000" y="35" font-family="Arial" font-size="14" fill="#6c757d">¥500,000</text>
        </g>
    </g>

    <!-- 投資取引リスト -->
    <g transform="translate(20, 340)" id="investment-view" display="none">
        <!-- 米国株式 -->
        <rect width="1160" height="60" rx="5" fill="#ffffff" stroke="#dee2e6"/>
        <circle cx="50" cy="30" r="15" fill="#20c997"/>
        <text x="80" y="35" font-family="Arial" font-size="14" font-weight="bold" fill="#495057">米国株式 (VOO)</text>
        <text x="850" y="35" font-family="Arial" font-size="14" fill="#6c757d">保有数: 100株</text>
        <text x="1000" y="35" font-family="Arial" font-size="14" fill="#20c997">+¥5,000,000</text>
        <text x="1120" y="35" font-family="Arial" font-size="14" fill="#495057">▼</text>

        <!-- VOOの取引リスト -->
        <g transform="translate(0, 60)">
            <rect width="1160" height="160" fill="#f8f9fa"/>
            <!-- 購入 -->
            <rect x="20" y="10" width="1120" height="40" rx="5" fill="#ffffff" stroke="#dee2e6"/>
            <text x="40" y="35" font-family="Arial" font-size="14" fill="#495057">購入</text>
            <text x="200" y="35" font-family="Arial" font-size="14" fill="#495057">50株 @ ¥40,000</text>
            <text x="1000" y="35" font-family="Arial" font-size="14" fill="#dc3545">-¥2,000,000</text>

            <!-- 購入2 -->
            <rect x="20" y="60" width="1120" height="40" rx="5" fill="#ffffff" stroke="#dee2e6"/>
            <text x="40" y="85" font-family="Arial" font-size="14" fill="#495057">購入</text>
            <text x="200" y="85" font-family="Arial" font-size="14" fill="#495057">50株 @ ¥42,000</text>
            <text x="1000" y="85" font-family="Arial" font-size="14" fill="#dc3545">-¥2,100,000</text>

            <!-- 配当 -->
            <rect x="20" y="110" width="1120" height="40" rx="5" fill="#ffffff" stroke="#dee2e6"/>
            <text x="40" y="135" font-family="Arial" font-size="14" fill="#495057">配当</text>
            <text x="200" y="135" font-family="Arial" font-size="14" fill="#495057">100株 @ ¥100</text>
            <text x="1000" y="135" font-family="Arial" font-size="14" fill="#28a745">+¥10,000</text>
        </g>
    </g>
</svg>