<?xml version="1.0" encoding="UTF-8"?>
<svg width="1200" height="800" viewBox="0 0 1200 800" xmlns="http://www.w3.org/2000/svg">
    <!-- 背景 -->
    <rect width="1200" height="800" fill="#f8f9fa"/>
    
    <!-- ヘッダー -->
    <text x="40" y="60" font-family="Arial" font-size="24" font-weight="bold" fill="#212529">年を選択</text>
    
    <!-- 年リスト -->
    <g transform="translate(40, 100)">
        <!-- 2025年 -->
        <rect width="1120" height="140" rx="10" fill="#ffffff" stroke="#dee2e6"/>
        <text x="40" y="40" font-family="Arial" font-size="24" fill="#212529">2025年</text>
        
        <!-- 収支サマリー -->
        <g transform="translate(40, 60)">
            <text x="0" y="20" font-family="Arial" font-size="16" fill="#dc3545">総支出: -¥2,400,000</text>
            <text x="200" y="20" font-family="Arial" font-size="16" fill="#28a745">総収入: +¥3,600,000</text>
        </g>
        
        <!-- アクションボタン -->
        <g transform="translate(500, 30)">
            <rect width="120" height="60" rx="5" fill="#007bff"/>
            <text x="35" y="35" font-family="Arial" font-size="14" fill="#ffffff">取引一覧</text>
            
            <rect x="140" width="120" height="60" rx="5" fill="#28a745"/>
            <text x="175" y="35" font-family="Arial" font-size="14" fill="#ffffff">カテゴリ</text>
            
            <rect x="280" width="120" height="60" rx="5" fill="#ffc107"/>
            <text x="320" y="35" font-family="Arial" font-size="14" fill="#495057">口座</text>
            
            <rect x="420" width="120" height="60" rx="5" fill="#dc3545"/>
            <text x="455" y="35" font-family="Arial" font-size="14" fill="#ffffff">イベント</text>
        </g>
        
        <!-- 2024年 -->
        <g transform="translate(0, 160)">
            <rect width="1120" height="140" rx="10" fill="#ffffff" stroke="#dee2e6"/>
            <text x="40" y="40" font-family="Arial" font-size="24" fill="#212529">2024年</text>
            
            <!-- 収支サマリー -->
            <g transform="translate(40, 60)">
                <text x="0" y="20" font-family="Arial" font-size="16" fill="#dc3545">総支出: -¥2,200,000</text>
                <text x="200" y="20" font-family="Arial" font-size="16" fill="#28a745">総収入: +¥3,200,000</text>
            </g>
            
            <!-- アクションボタン -->
            <g transform="translate(500, 30)">
                <rect width="120" height="60" rx="5" fill="#007bff"/>
                <text x="35" y="35" font-family="Arial" font-size="14" fill="#ffffff">取引一覧</text>
                
                <rect x="140" width="120" height="60" rx="5" fill="#28a745"/>
                <text x="175" y="35" font-family="Arial" font-size="14" fill="#ffffff">カテゴリ</text>
                
                <rect x="280" width="120" height="60" rx="5" fill="#ffc107"/>
                <text x="320" y="35" font-family="Arial" font-size="14" fill="#495057">口座</text>
                
                <rect x="420" width="120" height="60" rx="5" fill="#dc3545"/>
                <text x="455" y="35" font-family="Arial" font-size="14" fill="#ffffff">イベント</text>
            </g>
        </g>
        
        <!-- 2023年 -->
        <g transform="translate(0, 320)">
            <rect width="1120" height="140" rx="10" fill="#ffffff" stroke="#dee2e6"/>
            <text x="40" y="40" font-family="Arial" font-size="24" fill="#212529">2023年</text>
            
            <!-- 収支サマリー -->
            <g transform="translate(40, 60)">
                <text x="0" y="20" font-family="Arial" font-size="16" fill="#dc3545">総支出: -¥2,000,000</text>
                <text x="200" y="20" font-family="Arial" font-size="16" fill="#28a745">総収入: +¥2,800,000</text>
            </g>
            
            <!-- アクションボタン -->
            <g transform="translate(500, 30)">
                <rect width="120" height="60" rx="5" fill="#007bff"/>
                <text x="35" y="35" font-family="Arial" font-size="14" fill="#ffffff">取引一覧</text>
                
                <rect x="140" width="120" height="60" rx="5" fill="#28a745"/>
                <text x="175" y="35" font-family="Arial" font-size="14" fill="#ffffff">カテゴリ</text>
                
                <rect x="280" width="120" height="60" rx="5" fill="#ffc107"/>
                <text x="320" y="35" font-family="Arial" font-size="14" fill="#495057">口座</text>
                
                <rect x="420" width="120" height="60" rx="5" fill="#dc3545"/>
                <text x="455" y="35" font-family="Arial" font-size="14" fill="#ffffff">イベント</text>
            </g>
        </g>
    </g>
</svg>